<?xml version="1.0" encoding="UTF-8"?>
<svg width="35px" height="35px" viewBox="0 0 35 35" version="1.1" xmlns="http://www.w3.org/2000/svg" xmlns:xlink="http://www.w3.org/1999/xlink">
    <!-- Generator: sketchtool 63.1 (101010) - https://sketch.com -->
    <title>D76B3576-DBF8-4FF8-9E79-9AD5EFAB1DF1</title>
    <desc>Created with sketchtool.</desc>
    <g id="To-Do" stroke="none" stroke-width="1" fill="none" fill-rule="evenodd">
        <g id="To-do-app---home" transform="translate(-390.000000, -22.000000)" fill-rule="nonzero">
            <g id="Connect_Box" transform="translate(390.000000, 22.000000)">
                <path d="M23,23 L12,23 L12,12 L23,12 L23,23 Z M15.1428571,19.8571429 L19.8571429,19.8571429 L19.8571429,15.1428571 L15.1428571,15.1428571 L15.1428571,19.8571429 Z" id="Shape" fill="#0C5DFF"></path>
                <path d="M33.4090814,0 L21.4772632,0 L13.5227177,0 L1.59090909,0 C0.712326364,0 0,0.712335909 0,1.59090432 L0,13.522732 L0,21.4772775 L0,33.4090909 C0,34.2876641 0.712326364,35 1.59090909,35 L13.5227177,35 L21.4772632,35 L33.4090814,35 C34.2876641,35 35,34.2876641 35,33.4090909 L35,21.4772775 L35,13.522732 L35,1.59090432 C35,0.712334318 34.2876641,0 33.4090814,0 Z M23.0681818,31.8181818 L23.0681818,25.4545502 L19.8863636,25.4545502 L19.8863636,31.8181818 L15.1136364,31.8181818 L15.1136364,25.4545502 L11.9318182,25.4545502 L11.9318182,31.8181818 L3.18180864,31.8181818 L3.18180864,23.0681818 L9.545445,23.0681818 L9.545445,19.8863636 L3.18180864,19.8863636 L3.18180864,15.1136364 L9.545445,15.1136364 L9.545445,11.9318182 L3.18180864,11.9318182 L3.18180864,3.18181818 L11.9318182,3.18181818 L11.9318182,9.54545932 L15.1136364,9.54545932 L15.1136364,3.18181818 L19.8863636,3.18181818 L19.8863636,9.54545932 L23.0681818,9.54545932 L23.0681818,3.18181818 L31.8181818,3.18181818 L31.8181818,11.9318182 L25.4545359,11.9318182 L25.4545359,15.1136364 L31.8181818,15.1136364 L31.8181818,19.8863636 L25.4545359,19.8863636 L25.4545359,23.0681818 L31.8181818,23.0681818 L31.8181818,31.8181818 L23.0681818,31.8181818 Z" id="Shape" fill="#000004"></path>
            </g>
        </g>
    </g>
</svg>